Coordinates
version=1
nRows=4
nColumns=63
inDegrees=yes

Units are S.I. units (second, meters, Newtons, ...)
If the header above contains a line with 'inDegrees', this indicates whether rotational values are in degrees (yes) or radians (no).

endheader
time	pelvis_tilt	pelvis_list	pelvis_rotation	pelvis_tx	pelvis_ty	pelvis_tz	hip_flexion_r	hip_adduction_r	hip_rotation_r	knee_angle_r	knee_angle_r_beta	ankle_angle_r	subtalar_angle_r	mtp_angle_r	hip_flexion_l	hip_adduction_l	hip_rotation_l	knee_angle_l	knee_angle_l_beta	ankle_angle_l	subtalar_angle_l	mtp_angle_l	L5_S1_Flex_Ext	L5_S1_Lat_Bending	L5_S1_axial_rotation	L4_L5_Flex_Ext	L4_L5_Lat_Bending	L4_L5_axial_rotation	L3_L4_Flex_Ext	L3_L4_Lat_Bending	L3_L4_axial_rotation	L2_L3_Flex_Ext	L2_L3_Lat_Bending	L2_L3_axial_rotation	L1_L2_Flex_Ext	L1_L2_Lat_Bending	L1_L2_axial_rotation	L1_T12_Flex_Ext	L1_T12_Lat_Bending	L1_T12_axial_rotation	Abs_r3	Abs_r2	Abs_r1	Abs_t1	Abs_t2	neck_flexion	neck_bending	neck_rotation	arm_flex_r	arm_add_r	arm_rot_r	elbow_flex_r	pro_sup_r	wrist_flex_r	wrist_dev_r	arm_flex_l	arm_add_l	arm_rot_l	elbow_flex_l	pro_sup_l	wrist_flex_l	wrist_dev_l
      1.04255319	     -4.09500087	     -0.47310599	     97.84538992	      0.07095548	      0.52909582	      0.76198800	     -2.27576554	      0.06901881	     -9.81714602	     10.76528576	      0.18788968	     32.01686922	      7.07249246	      0.00000000	     -2.88595426	      0.88105157	     -7.64886288	      9.43520017	      0.16467531	     30.95502158	      2.45088012	      0.00000000	      0.30770862	     -0.07049479	      1.03666153	      0.57144568	     -0.09375807	      1.10145287	      0.50553449	     -0.17140103	      1.10145287	      0.35168018	     -0.17140103	      0.90707883	      0.28573823	     -0.14375298	      0.84228749	      0.17582471	     -0.10919643	      0.77749614	      2.19793191	     -0.79745116	      5.76560041	      0.00000000	      0.00000000	     27.69835453	      2.47686068	      5.24818129	    -34.19709989	    -46.43911035	     24.36517694	    102.52087206	     89.51984903	      5.21721459	     -2.84784868	      2.11521633	    -58.30852701	     66.34237237	    103.32487477	     89.42369176	      9.38117797	     10.64186596
      1.06382979	     -4.30528534	     -0.15629399	     96.98158209	      0.07096424	      0.53095814	      0.75946703	     -3.09708711	     -0.24976404	     -9.76191621	     10.20863284	      0.17817426	     31.45952599	      8.15395944	      0.00000000	     -4.06277646	      1.24567935	     -8.34410169	      8.09129051	      0.14121966	     30.38904118	      2.95288422	      0.00000000	      0.32157215	     -0.07046732	      1.46705953	      0.59719163	     -0.09372154	      1.55875075	      0.52831088	     -0.17133425	      1.55875075	      0.36752481	     -0.17133425	      1.28367709	      0.29861190	     -0.14369697	      1.19198587	      0.18374632	     -0.10915389	      1.10029465	      2.29695768	     -0.79714047	      8.15934498	      0.00000000	      0.00000000	     27.83170349	      2.15411721	      4.65879131	    -41.72378403	    -48.20877902	     17.89080217	    108.10610954	     89.42721856	      7.49251243	     -1.74697583	      6.10067946	    -62.50018308	     71.28163568	    109.00496573	     89.30211415	     10.57154733	     11.55603306
      1.08510638	     -4.64723129	     -0.00978510	     96.81012739	      0.07052373	      0.53273054	      0.75721461	     -3.81083138	     -0.61256659	     -9.73485286	      9.57089442	      0.16704362	     30.76539155	      8.38857947	      0.00000000	     -5.02654585	      1.72792065	     -8.19562039	      6.75682458	      0.11792884	     29.69093380	      3.36244673	      0.00000000	      0.34964257	     -0.10191734	      1.53637445	      0.64932121	     -0.13555007	      1.63239786	      0.57442777	     -0.24780183	      1.63239786	      0.39960649	     -0.24780183	      1.34432765	      0.32467809	     -0.20782985	      1.24830424	      0.19978576	     -0.15786996	      1.15228084	      2.49746188	     -1.15290937	      8.54485380	      0.00000000	      0.00000000	     27.94067312	      2.68768865	      4.61342629	    -45.73112341	    -51.26932632	     15.94023441	    112.26875404	     89.24534602	      7.53676255	     -2.04827947	      6.32144378	    -66.34890186	     72.11038096	    114.19199017	     89.13210912	     10.64586749	     11.65363689
      1.10638298	     -4.63636374	      0.27549519	     95.67893152	      0.07020334	      0.53418241	      0.75604312	     -4.28003089	     -0.84362685	     -9.72316203	      9.32634724	      0.16277547	     30.34107691	     10.03745237	      0.00000000	     -5.90497135	      1.98050483	     -8.65401733	      5.80516092	      0.10131917	     29.14135158	      3.14758034	      0.00000000	      0.34985207	     -0.06764990	      2.20639572	      0.64971028	     -0.08997437	      2.34429545	      0.57477197	     -0.16448397	      2.34429545	      0.39984593	     -0.16448397	      1.93059626	      0.32487263	     -0.13795168	      1.79269652	      0.19990547	     -0.10478970	      1.65479679	      2.49895837	     -0.76526920	     12.27131108	      0.00000000	      0.00000000	     28.01939442	      1.04745014	      2.92330546	    -53.31786013	    -51.38428822	      9.72090984	    116.08463768	     89.00394248	      9.63452898	      0.55339082	     20.20548468	    -67.89440511	     86.95649202	    118.32048039	     88.75459332	      7.94444973	     12.86203480
